<svg width="20" height="21" viewBox="0 0 20 21" fill="none" xmlns="http://www.w3.org/2000/svg">
<path d="M5.19217 4.49211H6.99238V2.47098C6.99238 1.95819 7.3453 1.63571 7.88941 1.63571H11.3476C11.8848 1.63571 12.2377 1.95819 12.2377 2.47098V4.49211H14.0466V2.3759C14.0466 0.887565 13.091 0 11.4701 0H7.75826C6.14776 0 5.19217 0.887565 5.19217 2.3759V4.49211ZM0.858398 5.55048H18.389C18.8752 5.55048 19.2457 5.17783 19.2457 4.69334C19.2457 4.20951 18.8648 3.8403 18.389 3.8403H0.858398C0.391274 3.8403 0 4.21123 0 4.69334C0 5.17955 0.391274 5.55048 0.858398 5.55048ZM5.19217 20.5H14.0466C15.5411 20.5 16.4266 20.5018 16.5 19L17.3195 5.36838H15.5116L15 18C14.9733 18.5855 14.5597 18.5274 14 18.5274L5.5 18.5C4.95938 18.5 4.02663 18.5768 4 18L3.70635 5.3701H1.92794L2.5 18.5C2.57338 20.0018 3.68026 20.5 5.19217 20.5Z" fill="#929298" fill-opacity="0.85"/>
</svg>
