<?xml version="1.0" encoding="UTF-8"?>
<!--Generator: Apple Native CoreSVG 341-->
<!DOCTYPE svg
PUBLIC "-//W3C//DTD SVG 1.1//EN"
       "http://www.w3.org/Graphics/SVG/1.1/DTD/svg11.dtd">
<svg version="1.1" xmlns="http://www.w3.org/2000/svg" xmlns:xlink="http://www.w3.org/1999/xlink" viewBox="0 0 3300 2200">
 <!--glyph: "", point size: 100.0, font version: "20.0d8e1", template writer version: "138.0.0"-->
 <style>.defaults {-sfsymbols-wiggle-style:linear;-sfsymbols-wiggle-angle:-90}

.monochrome-0 {-sfsymbols-motion-group:1;-sfsymbols-layer-tags:519e4b5833d5a358 arrow.up.trash}
.monochrome-1 {opacity:0.0;-sfsymbols-clear-behind:true;-sfsymbols-motion-group:0;-sfsymbols-layer-tags:519e4b5833d5a358 arrow.up.trash}

.multicolor-0:systemRedColor {-sfsymbols-motion-group:1;-sfsymbols-layer-tags:519e4b5833d5a358 arrow.up.trash}
.multicolor-1:systemRedColor {-sfsymbols-motion-group:0;-sfsymbols-layer-tags:519e4b5833d5a358 arrow.up.trash}

.hierarchical-0:secondary {-sfsymbols-motion-group:1;-sfsymbols-layer-tags:519e4b5833d5a358 arrow.up.trash}
.hierarchical-1:primary {-sfsymbols-motion-group:0;-sfsymbols-layer-tags:519e4b5833d5a358 arrow.up.trash}

.SFSymbolsPreviewWireframe {fill:none;opacity:1.0;stroke:black;stroke-width:0.5}
</style>
 <g id="Notes">
  <rect height="2200" id="artboard" style="fill:white;opacity:1" width="3300" x="0" y="0"/>
  <line style="fill:none;stroke:black;opacity:1;stroke-width:0.5;" x1="263" x2="3036" y1="292" y2="292"/>
  <text style="stroke:none;fill:black;font-family:sans-serif;font-size:13;font-weight:bold;" transform="matrix(1 0 0 1 263 322)">Weight/Scale Variations</text>
  <text style="stroke:none;fill:black;font-family:sans-serif;font-size:13;text-anchor:middle;" transform="matrix(1 0 0 1 559.711 322)">Ultralight</text>
  <text style="stroke:none;fill:black;font-family:sans-serif;font-size:13;text-anchor:middle;" transform="matrix(1 0 0 1 856.422 322)">Thin</text>
  <text style="stroke:none;fill:black;font-family:sans-serif;font-size:13;text-anchor:middle;" transform="matrix(1 0 0 1 1153.13 322)">Light</text>
  <text style="stroke:none;fill:black;font-family:sans-serif;font-size:13;text-anchor:middle;" transform="matrix(1 0 0 1 1449.84 322)">Regular</text>
  <text style="stroke:none;fill:black;font-family:sans-serif;font-size:13;text-anchor:middle;" transform="matrix(1 0 0 1 1746.56 322)">Medium</text>
  <text style="stroke:none;fill:black;font-family:sans-serif;font-size:13;text-anchor:middle;" transform="matrix(1 0 0 1 2043.27 322)">Semibold</text>
  <text style="stroke:none;fill:black;font-family:sans-serif;font-size:13;text-anchor:middle;" transform="matrix(1 0 0 1 2339.98 322)">Bold</text>
  <text style="stroke:none;fill:black;font-family:sans-serif;font-size:13;text-anchor:middle;" transform="matrix(1 0 0 1 2636.69 322)">Heavy</text>
  <text style="stroke:none;fill:black;font-family:sans-serif;font-size:13;text-anchor:middle;" transform="matrix(1 0 0 1 2933.4 322)">Black</text>
  <line style="fill:none;stroke:black;opacity:1;stroke-width:0.5;" x1="263" x2="3036" y1="1903" y2="1903"/>
  <g transform="matrix(0.2 0 0 0.2 263 1933)">
   <path d="m46.2402 4.15039c21.7773 0 39.4531-17.627 39.4531-39.4043s-17.6758-39.4043-39.4531-39.4043c-21.7285 0-39.4043 17.627-39.4043 39.4043s17.6758 39.4043 39.4043 39.4043Zm0-7.42188c-17.6758 0-31.9336-14.3066-31.9336-31.9824s14.2578-31.9824 31.9336-31.9824 31.9824 14.3066 31.9824 31.9824-14.3066 31.9824-31.9824 31.9824Zm-17.9688-31.9824c0 2.14844 1.51367 3.61328 3.75977 3.61328h10.498v10.5957c0 2.19727 1.46484 3.71094 3.61328 3.71094 2.24609 0 3.71094-1.51367 3.71094-3.71094v-10.5957h10.5957c2.19727 0 3.71094-1.46484 3.71094-3.61328 0-2.19727-1.51367-3.71094-3.71094-3.71094h-10.5957v-10.5469c0-2.24609-1.46484-3.75977-3.71094-3.75977-2.14844 0-3.61328 1.51367-3.61328 3.75977v10.5469h-10.498c-2.24609 0-3.75977 1.51367-3.75977 3.71094Z"/>
  </g>
  <g transform="matrix(0.2 0 0 0.2 281.506 1933)">
   <path d="m58.5449 14.5508c27.4902 0 49.8047-22.3145 49.8047-49.8047s-22.3145-49.8047-49.8047-49.8047-49.8047 22.3145-49.8047 49.8047 22.3145 49.8047 49.8047 49.8047Zm0-8.30078c-22.9492 0-41.5039-18.5547-41.5039-41.5039s18.5547-41.5039 41.5039-41.5039 41.5039 18.5547 41.5039 41.5039-18.5547 41.5039-41.5039 41.5039Zm-22.6562-41.5039c0 2.39258 1.66016 4.00391 4.15039 4.00391h14.3555v14.4043c0 2.44141 1.66016 4.15039 4.05273 4.15039 2.44141 0 4.15039-1.66016 4.15039-4.15039v-14.4043h14.4043c2.44141 0 4.15039-1.61133 4.15039-4.00391 0-2.44141-1.70898-4.15039-4.15039-4.15039h-14.4043v-14.3555c0-2.49023-1.70898-4.19922-4.15039-4.19922-2.39258 0-4.05273 1.70898-4.05273 4.19922v14.3555h-14.3555c-2.49023 0-4.15039 1.70898-4.15039 4.15039Z"/>
  </g>
  <g transform="matrix(0.2 0 0 0.2 304.924 1933)">
   <path d="m74.8535 28.3203c35.1074 0 63.623-28.4668 63.623-63.5742s-28.5156-63.623-63.623-63.623-63.5742 28.5156-63.5742 63.623 28.4668 63.5742 63.5742 63.5742Zm0-9.08203c-30.127 0-54.4922-24.3652-54.4922-54.4922s24.3652-54.4922 54.4922-54.4922 54.4922 24.3652 54.4922 54.4922-24.3652 54.4922-54.4922 54.4922Zm-28.8574-54.4922c0 2.58789 1.85547 4.39453 4.58984 4.39453h19.7266v19.7754c0 2.68555 1.85547 4.58984 4.44336 4.58984 2.68555 0 4.54102-1.85547 4.54102-4.58984v-19.7754h19.7754c2.68555 0 4.58984-1.80664 4.58984-4.39453 0-2.73438-1.85547-4.58984-4.58984-4.58984h-19.7754v-19.7266c0-2.73438-1.85547-4.63867-4.54102-4.63867-2.58789 0-4.44336 1.9043-4.44336 4.63867v19.7266h-19.7266c-2.73438 0-4.58984 1.85547-4.58984 4.58984Z"/>
  </g>
  <text style="stroke:none;fill:black;font-family:sans-serif;font-size:13;font-weight:bold;" transform="matrix(1 0 0 1 263 1953)">Design Variations</text>
  <text style="stroke:none;fill:black;font-family:sans-serif;font-size:13;" transform="matrix(1 0 0 1 263 1971)">Symbols are supported in up to nine weights and three scales.</text>
  <text style="stroke:none;fill:black;font-family:sans-serif;font-size:13;" transform="matrix(1 0 0 1 263 1989)">For optimal layout with text and other symbols, vertically align</text>
  <text style="stroke:none;fill:black;font-family:sans-serif;font-size:13;" transform="matrix(1 0 0 1 263 2007)">symbols with the adjacent text.</text>
  <line style="fill:none;stroke:#00AEEF;stroke-width:0.5;opacity:1.0;" x1="776" x2="776" y1="1919" y2="1933"/>
  <g transform="matrix(0.2 0 0 0.2 776 1933)">
   <path d="m16.5527 0.78125c2.58789 0 3.85742-0.976562 4.78516-3.71094l6.29883-17.2363h28.8086l6.29883 17.2363c0.927734 2.73438 2.19727 3.71094 4.73633 3.71094 2.58789 0 4.24805-1.5625 4.24805-4.00391 0-0.830078-0.146484-1.61133-0.537109-2.63672l-22.9004-60.9863c-1.12305-2.97852-3.125-4.49219-6.25-4.49219-3.02734 0-5.07812 1.46484-6.15234 4.44336l-22.9004 61.084c-0.390625 1.02539-0.537109 1.80664-0.537109 2.63672 0 2.44141 1.5625 3.95508 4.10156 3.95508Zm13.4766-28.3691 11.8652-32.8613h0.244141l11.8652 32.8613Z"/>
  </g>
  <line style="fill:none;stroke:#00AEEF;stroke-width:0.5;opacity:1.0;" x1="792.836" x2="792.836" y1="1919" y2="1933"/>
  <text style="stroke:none;fill:black;font-family:sans-serif;font-size:13;font-weight:bold;" transform="matrix(1 0 0 1 776 1953)">Margins</text>
  <text style="stroke:none;fill:black;font-family:sans-serif;font-size:13;" transform="matrix(1 0 0 1 776 1971)">Leading and trailing margins on the left and right side of each symbol</text>
  <text style="stroke:none;fill:black;font-family:sans-serif;font-size:13;" transform="matrix(1 0 0 1 776 1989)">can be adjusted by modifying the x-location of the margin guidelines.</text>
  <text style="stroke:none;fill:black;font-family:sans-serif;font-size:13;" transform="matrix(1 0 0 1 776 2007)">Modifications are automatically applied proportionally to all</text>
  <text style="stroke:none;fill:black;font-family:sans-serif;font-size:13;" transform="matrix(1 0 0 1 776 2025)">scales and weights.</text>
  <g transform="matrix(0.2 0 0 0.2 1289 1933)">
   <path d="m14.209 9.32617 8.49609 8.54492c4.29688 4.3457 9.22852 4.05273 13.8672-1.07422l53.4668-58.9355-4.83398-4.88281-53.0762 58.3984c-1.75781 2.00195-3.41797 2.49023-5.76172 0.146484l-5.85938-5.81055c-2.34375-2.29492-1.80664-4.00391 0.195312-5.81055l57.373-54.0039-4.88281-4.83398-57.959 54.4434c-4.93164 4.58984-5.32227 9.47266-1.02539 13.8184Zm32.0801-90.9668c-2.09961 2.05078-2.24609 4.93164-1.07422 6.88477 1.17188 1.80664 3.4668 2.97852 6.68945 2.14844 7.32422-1.70898 14.9414-2.00195 22.0703 2.68555l-2.92969 7.27539c-1.70898 4.15039-0.830078 7.08008 1.85547 9.81445l11.4746 11.5723c2.44141 2.44141 4.49219 2.53906 7.32422 2.05078l5.32227-0.976562 3.32031 3.36914-0.195312 2.7832c-0.195312 2.49023 0.439453 4.39453 2.88086 6.78711l3.80859 3.71094c2.39258 2.39258 5.46875 2.53906 7.8125 0.195312l14.5508-14.5996c2.34375-2.34375 2.24609-5.32227-0.146484-7.71484l-3.85742-3.80859c-2.39258-2.39258-4.24805-3.17383-6.64062-2.97852l-2.88086 0.244141-3.22266-3.17383 1.2207-5.61523c0.634766-2.83203-0.146484-5.0293-3.07617-7.95898l-10.9863-10.9375c-16.6992-16.6016-38.8672-16.2109-53.3203-1.75781Zm7.4707 1.85547c12.1582-8.88672 28.6133-7.37305 39.7461 3.75977l12.1582 12.0605c1.17188 1.17188 1.36719 2.09961 1.02539 3.80859l-1.61133 7.42188 7.51953 7.42188 4.93164-0.292969c1.26953-0.0488281 1.66016 0.0488281 2.63672 1.02539l2.88086 2.88086-12.207 12.207-2.88086-2.88086c-0.976562-0.976562-1.12305-1.36719-1.07422-2.68555l0.341797-4.88281-7.4707-7.42188-7.61719 1.26953c-1.61133 0.341797-2.34375 0.195312-3.56445-0.976562l-10.0098-10.0098c-1.26953-1.17188-1.41602-2.00195-0.634766-3.85742l4.39453-10.4492c-7.8125-7.27539-17.9688-10.4004-28.125-7.42188-0.78125 0.195312-1.07422-0.439453-0.439453-0.976562Z"/>
  </g>
  <text style="stroke:none;fill:black;font-family:sans-serif;font-size:13;font-weight:bold;" transform="matrix(1 0 0 1 1289 1953)">Exporting</text>
  <text style="stroke:none;fill:black;font-family:sans-serif;font-size:13;" transform="matrix(1 0 0 1 1289 1971)">Symbols should be outlined when exporting to ensure the</text>
  <text style="stroke:none;fill:black;font-family:sans-serif;font-size:13;" transform="matrix(1 0 0 1 1289 1989)">design is preserved when submitting to Xcode.</text>
  <text id="template-version" style="stroke:none;fill:black;font-family:sans-serif;font-size:13;text-anchor:end;" transform="matrix(1 0 0 1 3036 1933)">Template v.6.0</text>
  <text style="stroke:none;fill:black;font-family:sans-serif;font-size:13;text-anchor:end;" transform="matrix(1 0 0 1 3036 1951)">Requires Xcode 16 or greater</text>
  <text id="descriptive-name" style="stroke:none;fill:black;font-family:sans-serif;font-size:13;text-anchor:end;" transform="matrix(1 0 0 1 3036 1969)">Generated from custom.pot</text>
  <text style="stroke:none;fill:black;font-family:sans-serif;font-size:13;text-anchor:end;" transform="matrix(1 0 0 1 3036 1987)">Typeset at 100.0 points</text>
  <text style="stroke:none;fill:black;font-family:sans-serif;font-size:13;" transform="matrix(1 0 0 1 263 726)">Small</text>
  <text style="stroke:none;fill:black;font-family:sans-serif;font-size:13;" transform="matrix(1 0 0 1 263 1156)">Medium</text>
  <text style="stroke:none;fill:black;font-family:sans-serif;font-size:13;" transform="matrix(1 0 0 1 263 1586)">Large</text>
 </g>
 <g id="Guides">
  <g id="H-reference" style="fill:#27AAE1;stroke:none;" transform="matrix(1 0 0 1 339 696)">
   <path d="M0.993654 0L3.63775 0L29.3281-67.1323L30.0303-67.1323L30.0303-70.459L28.1226-70.459ZM11.6885-24.4799L46.9815-24.4799L46.2315-26.7285L12.4385-26.7285ZM55.1196 0L57.7637 0L30.6382-70.459L29.4326-70.459L29.4326-67.1323Z"/>
  </g>
  <line id="Baseline-S" style="fill:none;stroke:#27AAE1;opacity:1;stroke-width:0.5;" x1="263" x2="3036" y1="696" y2="696"/>
  <line id="Capline-S" style="fill:none;stroke:#27AAE1;opacity:1;stroke-width:0.5;" x1="263" x2="3036" y1="625.541" y2="625.541"/>
  <g id="H-reference" style="fill:#27AAE1;stroke:none;" transform="matrix(1 0 0 1 339 1126)">
   <path d="M0.993654 0L3.63775 0L29.3281-67.1323L30.0303-67.1323L30.0303-70.459L28.1226-70.459ZM11.6885-24.4799L46.9815-24.4799L46.2315-26.7285L12.4385-26.7285ZM55.1196 0L57.7637 0L30.6382-70.459L29.4326-70.459L29.4326-67.1323Z"/>
  </g>
  <line id="Baseline-M" style="fill:none;stroke:#27AAE1;opacity:1;stroke-width:0.5;" x1="263" x2="3036" y1="1126" y2="1126"/>
  <line id="Capline-M" style="fill:none;stroke:#27AAE1;opacity:1;stroke-width:0.5;" x1="263" x2="3036" y1="1055.54" y2="1055.54"/>
  <g id="H-reference" style="fill:#27AAE1;stroke:none;" transform="matrix(1 0 0 1 339 1556)">
   <path d="M0.993654 0L3.63775 0L29.3281-67.1323L30.0303-67.1323L30.0303-70.459L28.1226-70.459ZM11.6885-24.4799L46.9815-24.4799L46.2315-26.7285L12.4385-26.7285ZM55.1196 0L57.7637 0L30.6382-70.459L29.4326-70.459L29.4326-67.1323Z"/>
  </g>
  <line id="Baseline-L" style="fill:none;stroke:#27AAE1;opacity:1;stroke-width:0.5;" x1="263" x2="3036" y1="1556" y2="1556"/>
  <line id="Capline-L" style="fill:none;stroke:#27AAE1;opacity:1;stroke-width:0.5;" x1="263" x2="3036" y1="1485.54" y2="1485.54"/>
  <line id="right-margin-Black-S" style="fill:none;stroke:#00AEEF;stroke-width:0.5;opacity:1.0;" x1="2980.37" x2="2980.37" y1="600.785" y2="720.121"/>
  <line id="left-margin-Black-S" style="fill:none;stroke:#00AEEF;stroke-width:0.5;opacity:1.0;" x1="2886.43" x2="2886.43" y1="600.785" y2="720.121"/>
  <line id="right-margin-Regular-S" style="fill:none;stroke:#00AEEF;stroke-width:0.5;opacity:1.0;" x1="1493.01" x2="1493.01" y1="600.785" y2="720.121"/>
  <line id="left-margin-Regular-S" style="fill:none;stroke:#00AEEF;stroke-width:0.5;opacity:1.0;" x1="1406.68" x2="1406.68" y1="600.785" y2="720.121"/>
  <line id="right-margin-Ultralight-S" style="fill:none;stroke:#00AEEF;stroke-width:0.5;opacity:1.0;" x1="601.354" x2="601.354" y1="600.785" y2="720.121"/>
  <line id="left-margin-Ultralight-S" style="fill:none;stroke:#00AEEF;stroke-width:0.5;opacity:1.0;" x1="518.068" x2="518.068" y1="600.785" y2="720.121"/>
 </g>
 <g id="Symbols">
  <g id="Black-S" transform="matrix(1 0 0 1 2886.43 696)">
   <path class="monochrome-0 multicolor-0:systemRedColor hierarchical-0:secondary SFSymbolsPreviewWireframe" d="M26.6602-67.334L38.5742-67.334L38.5742-74.0234C38.5742-75.0488 39.2578-75.5859 40.5762-75.5859L53.3691-75.5859C54.6875-75.5859 55.3711-75.0488 55.3711-74.0234L55.3711-67.334L67.2852-67.334L67.2852-74.2188C67.2852-81.5918 62.8418-85.4492 54.2969-85.4492L39.6484-85.4492C31.1035-85.4492 26.6602-81.5918 26.6602-74.2188ZM11.8164-57.6172L82.1289-57.6172C85.5957-57.6172 88.0859-59.9121 88.0859-63.3789C88.0859-66.748 85.5957-69.043 82.1289-69.043L11.8164-69.043C8.34961-69.043 5.85938-66.748 5.85938-63.3789C5.85938-59.9121 8.34961-57.6172 11.8164-57.6172ZM29.1992 6.54297L64.7461 6.54297C72.5098 6.54297 76.9531 2.83203 77.2949-4.98047L79.6875-58.3984L67.9199-58.3984L65.6738-8.59375C65.5762-6.29883 64.6973-5.17578 62.8906-5.17578L31.0547-5.17578C29.248-5.17578 28.3691-6.29883 28.2715-8.59375L26.0254-58.3984L14.2578-58.3984L16.6504-4.98047C16.9922 2.83203 21.4355 6.54297 29.1992 6.54297Z"/>
   <path class="monochrome-1 multicolor-1:systemRedColor hierarchical-1:primary SFSymbolsPreviewWireframe" d="M46.9727-46.9238C45.7031-46.9238 44.3848-46.4844 43.1152-45.3125L33.5449-36.1328C32.8125-35.4004 32.373-34.6191 32.373-33.4473C32.373-31.25 34.375-29.7363 36.2305-29.7363C37.4512-29.7363 38.4277-30.2734 39.1602-31.0547L41.6992-33.6914L42.7734-36.2793L42.334-32.0312L42.334-20.459C42.334-17.9688 44.3848-15.8691 46.9727-15.8691C49.6094-15.8691 51.6113-17.9688 51.6113-20.459L51.6113-32.0312L51.1719-36.2793L52.2461-33.6914L54.7852-31.0547C55.5176-30.2734 56.4941-29.7363 57.7148-29.7363C59.5703-29.7363 61.5723-31.25 61.5723-33.4473C61.5723-34.6191 61.1328-35.4004 60.4004-36.1328L50.8301-45.3125C49.5605-46.4844 48.2422-46.9238 46.9727-46.9238Z"/>
  </g>
  <g id="Regular-S" transform="matrix(1 0 0 1 1406.68 696)">
   <path class="monochrome-0 multicolor-0:systemRedColor hierarchical-0:secondary SFSymbolsPreviewWireframe" d="M26.123-63.623L33.0566-63.623L33.0566-71.8262C33.0566-73.8281 34.4727-75.1465 36.5234-75.1465L49.7559-75.1465C51.7578-75.1465 53.1738-73.8281 53.1738-71.8262L53.1738-63.623L60.1562-63.623L60.1562-72.3145C60.1562-78.0762 56.3965-81.6406 50.2441-81.6406L35.9863-81.6406C29.8828-81.6406 26.123-78.0762 26.123-72.3145ZM9.08203-60.1562L77.2461-60.1562C79.0527-60.1562 80.4688-61.6211 80.4688-63.4277C80.4688-65.2344 79.0039-66.6992 77.2461-66.6992L9.08203-66.6992C7.37305-66.6992 5.85938-65.2344 5.85938-63.4277C5.85938-61.6211 7.37305-60.1562 9.08203-60.1562ZM25.5371 4.05273L60.8398 4.05273C66.6504 4.05273 70.4102 0.439453 70.7031-5.41992L73.2422-60.8887L66.2598-60.8887L63.8184-6.15234C63.7207-3.95508 62.2559-2.49023 60.1074-2.49023L26.1719-2.49023C24.1211-2.49023 22.6074-4.00391 22.5098-6.15234L19.9219-60.8887L13.0859-60.8887L15.6738-5.37109C15.9668 0.488281 19.6289 4.05273 25.5371 4.05273Z"/>
   <path class="monochrome-1 multicolor-1:systemRedColor hierarchical-1:primary SFSymbolsPreviewWireframe" d="M43.1152-47.4121C42.3828-47.4121 41.6504-47.168 40.8691-46.3867L30.6641-36.6211C30.127-36.084 29.7363-35.4492 29.7363-34.6191C29.7363-33.0078 30.957-31.8359 32.5684-31.8359C33.3008-31.8359 34.1797-32.1289 34.7168-32.7637L39.0625-37.5488L40.1855-38.7207L40.0391-34.668L40.0391-18.2129C40.0391-16.6504 41.4551-15.2344 43.1152-15.2344C44.7754-15.2344 46.2402-16.6504 46.2402-18.2129L46.2402-34.668L46.0449-38.7207L47.168-37.5488L51.5137-32.7637C52.0996-32.1289 52.8809-31.8359 53.6621-31.8359C55.2246-31.8359 56.4941-33.0078 56.4941-34.6191C56.4941-35.4492 56.1523-36.084 55.5664-36.6211L45.3613-46.3867C44.5801-47.168 43.8965-47.4121 43.1152-47.4121Z"/>
  </g>
  <g id="Ultralight-S" transform="matrix(1 0 0 1 518.068 696)">
   <path class="monochrome-0 multicolor-0:systemRedColor hierarchical-0:secondary SFSymbolsPreviewWireframe" d="M26.0776-64.2588L28.2886-64.2588L28.2886-72.2349C28.2886-75.3721 30.295-77.1899 33.708-77.1899L49.5742-77.1899C53.0293-77.1899 55.0356-75.3721 55.0356-72.2349L55.0356-64.2588L57.25-64.2588L57.25-72.269C57.25-76.7139 54.353-79.3701 49.5176-79.3701L33.7612-79.3701C28.9746-79.3701 26.0776-76.7139 26.0776-72.269ZM6.99318-63.1533L76.3379-63.1533C76.9639-63.1533 77.4263-63.6645 77.4263-64.2451C77.4263-64.9165 76.9151-65.3369 76.3379-65.3369L6.99318-65.3369C6.41944-65.3369 5.85938-64.8711 5.85938-64.2451C5.85938-63.6191 6.41944-63.1533 6.99318-63.1533ZM24.6743 3.50782L58.6602 3.50782C62.6089 3.50782 65.96 0.348634 66.1621-3.51271L69.3369-63.7041L66.9863-63.7041L63.8638-3.70021C63.7207-0.958031 61.3931 1.32419 58.5635 1.32419L24.6734 1.32419C21.896 1.32419 19.565-0.96145 19.4219-3.70021L16.2437-63.6587L13.9941-63.6587L17.2178-3.50929C17.4199 0.352052 20.7187 3.50782 24.6743 3.50782Z"/>
   <path class="monochrome-1 multicolor-1:systemRedColor hierarchical-1:primary SFSymbolsPreviewWireframe" d="M41.6167-47.73C41.3838-47.73 41.1055-47.6221 40.8691-47.4766L29.2109-35.8037C28.9463-35.5845 28.919-35.313 28.919-35.0732C28.919-34.5517 29.3223-34.0156 29.8892-34.0156C30.0767-34.0156 30.4561-34.1723 30.6753-34.4438L37.7002-41.5449L40.5942-44.3969L40.5386-39.9355L40.5386-15.2158C40.5386-14.6069 41.0464-14.0991 41.6167-14.0991C42.2324-14.0991 42.6983-14.6069 42.6983-15.2158L42.6983-39.9355L42.6392-44.3515L45.4878-41.5449L52.5127-34.4438C52.7353-34.1723 53.1079-34.0156 53.3442-34.0156C53.8169-34.0156 54.3145-34.5517 54.3145-35.0732C54.3145-35.313 54.2451-35.5845 53.9771-35.8037L42.4097-47.4766C42.1734-47.6221 41.853-47.73 41.6167-47.73Z"/>
  </g>
 </g>
</svg>
